<!--
Add to HTML Code
<svg>
    <use xlink:href="./img/sprites.svg#icon-close"></use>
</svg>
-->
<svg>
    <symbol id="basket" width="23" height="21" viewBox="0 0 23 21" fill="none" xmlns="http://www.w3.org/2000/svg">
        <path d="M1 1.5H2.65424C3.13263 1.5 3.37183 1.5 3.56628 1.58674C3.73771 1.66321 3.88415 1.78638 3.98886 1.94217C4.10763 2.11888 4.14862 2.35454 4.23058 2.82585L4.6087 5M4.6087 5L5.49173 10.0774C5.67091 11.1077 5.7605 11.6228 6.02583 11.9939C6.25945 12.3207 6.58606 12.5695 6.96311 12.708C7.39133 12.8654 7.91176 12.815 8.95264 12.7143L18.614 11.7793C19.6298 11.681 20.1378 11.6318 20.5221 11.4033C20.8653 11.1993 21.1395 10.8972 21.3095 10.536C21.5 10.1314 21.5 9.6211 21.5 8.6005V8.6005C21.5 7.51582 21.5 6.97348 21.2922 6.55394C21.1068 6.17971 20.809 5.8729 20.4404 5.67654C20.0272 5.4564 19.4851 5.44036 18.4009 5.40826L4.6087 5Z"
              stroke="currentColor" stroke-width="1.8" stroke-linecap="round" stroke-linejoin="round"/>
        <circle cx="8.5" cy="18" r="2" stroke="currentColor" stroke-width="1.8"/>
        <circle cx="18" cy="18" r="2" stroke="currentColor" stroke-width="1.8"/>
    </symbol>
    <symbol id="favorite" width="24" height="21" viewBox="0 0 24 21" fill="none" xmlns="http://www.w3.org/2000/svg">
        <path d="M11.9996 19.054C-8 7.99991 5.99999 -4.00009 11.9996 3.58797C18 -4.00009 32 7.99991 11.9996 19.054Z"
              stroke="currentColor" stroke-width="1.8"/>
    </symbol>

    <symbol id="line" width="20" height="20" viewBox="0 0 20 20" fill="none" xmlns="http://www.w3.org/2000/svg">
        <path d="M15.8333 7.5L10 13.3333L4.16668 7.5" stroke="currentColor" stroke-width="1.8" stroke-linecap="round"
              stroke-linejoin="round"/>
    </symbol>
    <symbol id="arrow" width="24" height="24" viewBox="0 0 24 24" fill="none" xmlns="http://www.w3.org/2000/svg">
        <path d="M14.9999 5L7.99994 12L14.9999 19" stroke="currentColor" stroke-width="1.8" stroke-linecap="round"
              stroke-linejoin="round"/>
    </symbol>
    <symbol id="arrow-right" width="24" height="24" viewBox="0 0 24 24" fill="none" xmlns="http://www.w3.org/2000/svg">
        <path d="M19.3651 12.56L14.3851 17.56C14.2251 17.72 14.0251 17.8 13.8251 17.8C13.6251 17.8 13.4251 17.72 13.2651 17.56C12.9451 17.24 12.9451 16.74 13.2651 16.42L16.8851 12.78H5.20509C4.76509 12.78 4.40509 12.42 4.40509 11.98C4.40509 11.54 4.76509 11.18 5.20509 11.18H16.8851L13.2651 7.54004C12.9451 7.22004 12.9451 6.72003 13.2651 6.40003C13.5851 6.08003 14.0851 6.08003 14.4051 6.40003L19.3851 11.4C19.6851 11.74 19.6851 12.26 19.3651 12.56Z"
              fill="currentColor"/>
    </symbol>
    <symbol id="customer-support" width="40" height="40" viewBox="0 0 40 40" fill="none"
            xmlns="http://www.w3.org/2000/svg">
        <g clip-path="url(#clip0_1_252)">
            <path d="M36.4624 15.9752C36.1995 7.12165 28.9161 0 20 0C11.0838 0 3.80043 7.12165 3.53745 15.9752L2.35291 17.1598V25.1932L3.52938 26.3696V31.8431C3.52938 35.0435 6.13298 37.6471 9.3333 37.6471H10.7906C11.2762 39.0164 12.5839 40 14.1176 40H16.4706C18.0053 40 19.3137 39.015 19.7986 37.6442C19.8658 37.6454 19.9331 37.6471 20 37.6471C25.6814 37.6471 30.4351 33.5987 31.5281 28.2353H34.6049L37.647 25.1932V17.1598L36.4624 15.9752ZM20 2.35294C26.9828 2.35294 32.7969 7.44933 33.9204 14.1176H31.5281C30.4351 8.7542 25.6814 4.70588 20 4.70588C14.3186 4.70588 9.56483 8.7542 8.47181 14.1176H6.07949C7.20302 7.44933 13.0171 2.35294 20 2.35294ZM29.1139 14.1176C25.3109 14.1063 22.6246 14.3379 20.4098 11.1004L19.3344 9.52839L18.4102 11.1938C17.0635 13.6204 15.2499 14.1176 12.9411 14.1176H10.886C11.9335 10.0629 15.6225 7.05882 20 7.05882C24.3775 7.05882 28.0665 10.0629 29.1139 14.1176ZM8.23526 25.8824H6.36961L4.70585 24.2186V18.1344L6.36961 16.4706H8.23526V25.8824ZM5.88232 31.8431V28.2353H8.46953C8.91244 30.4294 9.97212 32.4435 11.542 34.0611C11.2129 34.4127 10.9548 34.8311 10.7906 35.2941H9.3333C7.4304 35.2941 5.88232 33.746 5.88232 31.8431ZM16.4706 37.6471H14.1176C13.4688 37.6471 12.9411 37.1194 12.9411 36.4706C12.9411 35.8219 13.4688 35.2941 14.1176 35.2941H16.4706C17.1193 35.2941 17.647 35.8219 17.647 36.4706C17.647 37.1194 17.1193 37.6471 16.4706 37.6471ZM29.4117 25.8824C29.4117 31.072 25.1896 35.2941 20 35.2941C19.9325 35.2941 19.8645 35.2928 19.7966 35.2912C19.3102 33.9234 18.0032 32.9412 16.4706 32.9412C14.0549 32.9465 14.0934 32.9291 13.7923 32.9568C11.7498 31.1665 10.5882 28.6166 10.5882 25.8824V16.4706H12.9411C15.0233 16.4706 17.5589 16.1273 19.5218 13.7384C22.1116 16.4524 25.2764 16.4706 28.1175 16.4706H29.4117V25.8824ZM35.2941 24.2186L33.6303 25.8824H31.7647V16.4706H33.6303L35.2941 18.1344V24.2186Z"
                  fill="currentColor"/>
        </g>
        <defs>
            <clipPath id="clip0_1_252">
                <rect width="40" height="40" fill="white"/>
            </clipPath>
        </defs>
    </symbol>
    <symbol id="trophy" width="40" height="40" viewBox="0 0 40 40" fill="none" xmlns="http://www.w3.org/2000/svg">
        <path d="M32.903 2.34375C32.0495 2.34375 31.2493 2.57414 30.5593 2.97437V1.17188C30.5593 0.524687 30.0346 0 29.3874 0H10.6374C9.99013 0 9.46544 0.524687 9.46544 1.17188V2.98867C8.76989 2.57953 7.9606 2.34375 7.09692 2.34375C4.51224 2.34375 2.40942 4.44656 2.40942 7.03125C2.40942 9.00273 2.99364 10.9077 4.09888 12.5402C5.98044 15.3193 8.30067 16.0405 10.2206 16.8084C11.3276 19.5653 13.5663 21.7502 16.3589 22.7846L15.4947 28.2812H15.3249C13.3864 28.2812 11.8093 29.8584 11.8093 31.7969V37.6562H10.6374C9.9902 37.6562 9.46552 38.1809 9.46552 38.8281C9.46552 39.4753 9.9902 40 10.6374 40H29.3874C30.0346 40 30.5593 39.4753 30.5593 38.8281C30.5593 38.1809 30.0346 37.6562 29.3874 37.6562H28.2155V31.7969C28.2155 29.8584 26.6384 28.2812 24.6999 28.2812H24.53L23.666 22.7847C26.4626 21.7487 28.7038 19.5591 29.8092 16.7966C31.6229 16.0711 34.0003 15.3478 35.9011 12.5402C37.0064 10.9077 37.5906 9.00266 37.5906 7.03125C37.5905 4.44656 35.4877 2.34375 32.903 2.34375ZM9.45677 13.9787C6.59942 12.8357 4.75317 10.1087 4.75317 7.03125C4.75317 5.73891 5.80458 4.6875 7.09692 4.6875C8.38927 4.6875 9.44067 5.73891 9.44067 7.03125C9.44067 7.11367 9.44935 7.19398 9.46552 7.27156V12.8906C9.46552 13.2673 9.48575 13.6392 9.5245 14.0058L9.45677 13.9787ZM25.8718 37.6562H14.153V35.3125H25.8718V37.6562ZM24.6999 30.625C25.3461 30.625 25.8718 31.1507 25.8718 31.7969V32.9688H14.153V31.7969C14.153 31.1507 14.6787 30.625 15.3249 30.625C15.9607 30.625 23.2089 30.625 24.6999 30.625ZM17.8672 28.2812L18.6427 23.3487C19.0911 23.4071 19.5483 23.4375 20.0124 23.4375C20.4765 23.4375 20.9336 23.407 21.3821 23.3487L22.1575 28.2812H17.8672ZM28.2155 12.8906C28.2155 17.4138 24.5356 21.0938 20.0124 21.0938C15.4892 21.0938 11.8093 17.4138 11.8093 12.8906V7.03125H28.2155V12.8906ZM28.2155 4.6875H11.8093V2.34375H28.2155V4.6875ZM30.5431 13.9787L30.5015 13.9953C30.5394 13.6322 30.5592 13.2637 30.5592 12.8906V7.03125C30.5593 5.73891 31.6107 4.6875 32.903 4.6875C34.1954 4.6875 35.2468 5.73891 35.2468 7.03125C35.2468 10.1087 33.4005 12.8358 30.5431 13.9787Z"
              fill="currentColor"/>
    </symbol>
    <symbol id="shipping" width="40" height="40" viewBox="0 0 40 40" fill="none" xmlns="http://www.w3.org/2000/svg">
        <g clip-path="url(#clip0_1_245)">
            <path d="M36.8986 20.7346V2.5198C36.8986 1.86997 36.3718 1.34314 35.7219 1.34314H4.19672C3.54689 1.34314 3.02006 1.86997 3.02006 2.5198V22.1867C2.45244 22.2694 1.89752 22.4898 1.40662 22.8542C-0.140922 23.9516 -0.506941 26.4073 0.789345 27.9218L6.08926 34.347C9.36994 38.1866 12.855 38.657 18.0359 38.657C22.4819 38.657 24.4695 38.6766 28.3443 37.7937L32.1173 36.8913C32.7291 37.7456 33.7003 38.299 34.7921 38.299H36.6508C38.4975 38.299 40 36.7163 40 34.7708V24.2523C40 22.3947 38.6299 20.8688 36.8986 20.7346ZM31.6098 23.1551L30.042 22.3588C27.4642 21.0577 24.4839 21.0095 21.8654 22.2269C21.1511 22.5079 19.5929 23.4506 18.7847 23.4191H13.3445C11.5399 23.4191 10.0718 24.8872 10.0718 26.6918V27.5499C10.0617 27.5392 10.0511 27.5291 10.0411 27.5182L6.15617 23.3013C5.92107 23.0462 5.65695 22.8326 5.37346 22.6613V10.9874H15.0027V15.3007C15.0027 15.9505 15.5295 16.4773 16.1793 16.4773H23.6041C24.254 16.4773 24.7808 15.9505 24.7808 15.3007V10.9874H34.5454V20.7346C33.1705 20.8408 32.0242 21.8243 31.6098 23.1551ZM17.3559 10.9874H22.4274V14.124H17.3559V10.9874ZM34.5453 8.63404H24.7808V3.69646H34.5454V8.63404H34.5453ZM22.4275 3.69646V8.63412H17.356V3.69646H22.4275ZM15.0026 3.69646V8.63412H5.37338V3.69646H15.0026ZM27.7982 35.5046C24.2188 36.3244 22.063 36.2912 18.0781 36.2912C13.2146 36.2912 10.8646 36.2126 7.90476 32.8494L2.60485 26.4243C1.68298 25.2238 3.35274 23.8067 4.42538 24.8957L8.31032 29.1127C9.33707 30.1961 10.6291 30.7923 12.2216 30.8274H22.9926C23.6424 30.8274 24.1693 30.3006 24.1693 29.6507C24.1693 29.0009 23.6424 28.4741 22.9926 28.4741H12.425V26.6916C12.425 26.1847 12.8374 25.7722 13.3444 25.7722H18.7846C20.0102 25.86 21.7792 24.8366 22.8575 24.3607C24.8186 23.4489 27.0508 23.485 28.9789 24.4581L31.4431 25.7098V34.6326L27.7982 35.5046ZM37.6467 34.7707C37.6467 35.4186 37.2 35.9456 36.6509 35.9456H34.7922C34.2431 35.9456 33.7965 35.4186 33.7965 34.7707V24.2523C33.7965 23.6044 34.2432 23.0773 34.7922 23.0773H36.6509C37.2 23.0773 37.6467 23.6044 37.6467 24.2523V34.7707Z"
                  fill="currentColor"/>
        </g>
        <defs>
            <clipPath id="clip0_1_245">
                <rect width="40" height="40" fill="white"/>
            </clipPath>
        </defs>
    </symbol>
    <symbol id="guarantee" width="40" height="40" viewBox="0 0 40 40" fill="none" xmlns="http://www.w3.org/2000/svg">
        <g clip-path="url(#clip0_1_235)">
            <path d="M37.8573 14.1742C37.3295 12.5398 37.5545 10.0864 36.1827 8.19214C34.8 6.28292 32.3952 5.74026 31.0373 4.74714C29.6938 3.76448 28.4438 1.62612 26.1837 0.88862C23.9873 0.171901 21.7414 1.14448 20 1.14448C18.2588 1.14448 16.013 0.171667 13.8163 0.888542C11.5566 1.62589 10.3056 3.76471 8.96289 4.7469C7.60648 5.73885 5.19992 6.283 3.8175 8.1919C2.4468 10.0846 2.66953 12.5436 2.14266 14.1741C1.64125 15.7259 0 17.5883 0 20.0002C0 22.4135 1.63938 24.2688 2.14266 25.8262C2.67047 27.4606 2.44547 29.9139 3.81734 31.8082C5.19992 33.7175 7.60461 34.2601 8.96266 35.2533C10.306 36.2358 11.5562 38.3743 13.8163 39.1117C16.0112 39.828 18.2606 38.8559 20 38.8559C21.737 38.8559 23.9916 39.827 26.1837 39.1118C28.4434 38.3745 29.6937 36.2361 31.0371 35.2535C32.3935 34.2615 34.8001 33.7174 36.1825 31.8085C37.5533 29.9157 37.3304 27.4569 37.8573 25.8263C38.3587 24.2744 40 22.412 40 20.0002C40 17.587 38.361 15.7323 37.8573 14.1742ZM34.8838 24.8653C34.2686 26.7696 34.4298 28.9008 33.6516 29.9753C32.863 31.0642 30.7913 31.5615 29.1926 32.7309C27.6114 33.8872 26.5032 35.7203 25.2143 36.1408C23.9949 36.5388 22.0077 35.7307 20.0001 35.7307C17.9777 35.7307 16.011 36.5405 14.7858 36.1408C13.497 35.7203 12.3904 33.8885 10.8075 32.7308C9.21828 31.5685 7.13469 31.061 6.34836 29.9752C5.57273 28.9042 5.72781 26.7583 5.11633 24.8654C4.51695 23.0108 3.125 21.4049 3.125 20.0002C3.125 18.594 4.5157 16.9937 5.11617 15.135C5.73141 13.2308 5.57023 11.0995 6.34836 10.025C7.13648 8.9369 9.20984 8.43792 10.8075 7.26948C12.3937 6.1094 13.4949 4.28073 14.7856 3.85956C16.004 3.46206 17.9977 4.26964 19.9999 4.26964C22.0259 4.26964 23.9877 3.45932 25.2142 3.85956C26.5028 4.28003 27.6104 6.11253 29.1926 7.26956C30.7816 8.43182 32.8653 8.9394 33.6516 10.0251C34.4274 11.0963 34.2715 13.24 34.8837 15.1349V15.1349C35.483 16.9896 36.875 18.5954 36.875 20.0002C36.875 21.4064 35.4843 23.0067 34.8838 24.8653ZM27.1987 14.9849C27.8089 15.5952 27.8089 16.5845 27.1987 17.1946L19.3779 25.0154C18.7677 25.6257 17.7783 25.6256 17.1681 25.0154L12.8014 20.6487C12.1912 20.0385 12.1911 19.0492 12.8013 18.439C13.4116 17.8289 14.401 17.8288 15.011 18.439L18.273 21.7009L24.9888 14.985C25.5991 14.3748 26.5884 14.3748 27.1987 14.9849Z"
                  fill="currentColor"/>
        </g>
        <defs>
            <clipPath id="clip0_1_235">
                <rect width="40" height="40" fill="white"/>
            </clipPath>
        </defs>
    </symbol>
    <symbol id="share" xmlns="http://www.w3.org/2000/svg" width="18" height="20" fill="none">
        <path fill="currentColor"
              d="M15 14c-.788 0-1.5.31-2.034.807L5.91 10.7c.05-.23.09-.46.09-.7 0-.24-.04-.47-.09-.7l7.05-4.11c.54.5 1.25.81 2.04.81 1.66 0 3-1.34 3-3s-1.34-3-3-3-3 1.34-3 3c0 .24.04.47.09.7L5.04 7.81C4.5 7.31 3.79 7 3 7c-1.66 0-3 1.34-3 3s1.34 3 3 3c.79 0 1.5-.31 2.04-.81l7.048 4.118A2.984 2.984 0 0 0 12 17a3 3 0 1 0 3-3Z"/>
    </symbol>

</svg>
